<svg id="Calque_1" data-name="Calque 1" xmlns="http://www.w3.org/2000/svg" viewBox="0 0 346.71 112.87"><title>Logo-Tourisme-Aveyron-2017</title><path d="M42.46,349.85h8.63l5.42-11.7H76.61l5.06,11.7h8.78L66.9,297.36ZM59.9,330.54l6.84-15,6.58,15H59.9Z" transform="translate(-42.46 -241.2)" style="fill:#fff"/><polygon points="71.1 92.45 58.06 59.72 49.3 59.72 70.94 112.87 92.9 60.24 93.11 59.72 84.35 59.72 71.1 92.45" style="fill:#fff"/><polygon points="105.46 108.65 132.8 108.65 132.8 101.04 113.51 101.04 113.51 85.75 132.22 85.75 132.22 78.14 113.51 78.14 113.51 67.34 132.8 67.34 132.8 59.72 105.46 59.72 105.46 108.65" style="fill:#fff"/><polygon points="162.54 78.63 151.78 59.72 142.52 59.72 158.54 87.58 158.54 108.65 166.6 108.65 166.6 87.58 182.62 59.72 173.44 59.72 162.54 78.63" style="fill:#fff"/><path d="M264.6,315.38a14,14,0,0,0-5.94-11.58c-3.11-2.07-6.74-2.88-12.93-2.88h-8.89v48.93h8V330.13h0.73l13.61,19.56,0.11,0.16h9.82l-15-20.65A13.86,13.86,0,0,0,264.6,315.38ZM244.88,323V308.54h2.23c6.41,0,9.66,2.36,9.66,7,0,6.19-5.41,7.49-9.94,7.49h-1.94Z" transform="translate(-42.46 -241.2)" style="fill:#fff"/><path d="M304.68,300A25.65,25.65,0,0,0,279,325.57c0,14.14,11.27,25.22,25.66,25.22A25.4,25.4,0,1,0,304.68,300Zm-0.08,43.18a17.79,17.79,0,0,1,0-35.57c10,0,17.46,7.69,17.46,17.89A17.59,17.59,0,0,1,304.6,343.17Z" transform="translate(-42.46 -241.2)" style="fill:#fff"/><polygon points="338.33 59.72 338.33 92.6 303.23 55.9 303.23 108.65 311.28 108.65 311.28 75.49 346.37 112.18 346.37 59.72 338.33 59.72" style="fill:#fff"/><path d="M315.76,325.24a11.19,11.19,0,1,1-11.2-11.2,11.2,11.2,0,0,1,11.2,11.2" transform="translate(-42.46 -241.2)" style="fill:#8dc63f"/><path d="M63.19,286.31H51.84V252.26H42.46v-9.61H72.57v9.61H63.19v34.05Z" transform="translate(-42.46 -241.2)" style="fill:#8dc63f"/><path d="M177.48,242.65V267.2c0,5.61-.23,11.17-4.57,15.4-3.65,3.59-9.38,4.86-14.48,4.86s-10.83-1.28-14.48-4.86c-4.34-4.23-4.58-9.79-4.58-15.4V242.65h11.35v23c0,5.68.41,11.87,7.7,11.87s7.7-6.2,7.7-11.87v-23h11.35Z" transform="translate(-42.46 -241.2)" style="fill:#8dc63f"/><path d="M226.76,286.31H212.63l-10.72-16.79H201.8v16.79H190.45V242.65h17c8.63,0,15.17,4.11,15.17,13.44,0,6-3.36,11.23-9.55,12.33Zm-25-24.09h1.1c3.7,0,7.87-.7,7.87-5.44s-4.17-5.45-7.87-5.45h-1.1v10.89Z" transform="translate(-42.46 -241.2)" style="fill:#8dc63f"/><path d="M247,286.31H235.61V242.65H247v43.66Z" transform="translate(-42.46 -241.2)" style="fill:#8dc63f"/><path d="M284.14,253.88a12,12,0,0,0-7.53-2.89c-2.09,0-4.86,1.22-4.86,3.65s3.07,3.53,5,4.17l2.89,0.87c6.08,1.79,10.77,4.86,10.77,11.93,0,4.34-1,8.8-4.52,11.76a19.17,19.17,0,0,1-12.39,4.11,26.94,26.94,0,0,1-15.34-5l4.86-9.15c2.84,2.49,6.2,4.52,10.08,4.52,2.66,0,5.5-1.33,5.5-4.4s-4.45-4.28-6.89-5c-7.12-2-11.81-3.88-11.81-12.33,0-8.86,6.31-14.65,15.06-14.65a29.83,29.83,0,0,1,13.66,3.59Z" transform="translate(-42.46 -241.2)" style="fill:#8dc63f"/><path d="M306.42,242.65H317.6L326.46,266l9.38-23.34h11.29l6.61,43.66H342.39l-3.19-25.14h-0.12L328.6,286.31h-4.51l-10-25.14H314l-3.65,25.14H299Z" transform="translate(-42.46 -241.2)" style="fill:#8dc63f"/><path d="M375.68,252.26v7.3h12.8v9.61h-12.8v7.53h13.49v9.61H364.33V242.65h24.84v9.61H375.68Z" transform="translate(-42.46 -241.2)" style="fill:#8dc63f"/><circle cx="61.95" cy="23.28" r="7.19" style="fill:#8dc63f"/><path d="M128.56,263.67c0-13.2-11.58-22.46-24.15-22.46s-24.15,9.26-24.15,22.46c0,13.57,9.35,23.26,22.5,24L91.91,273.08h0a15.17,15.17,0,1,1,25,0h0l-10.86,14.61C119.21,286.93,128.56,277.24,128.56,263.67Z" transform="translate(-42.46 -241.2)" style="fill:#8dc63f"/></svg>