<?xml version="1.0" standalone="no"?>
<!DOCTYPE svg PUBLIC "-//W3C//DTD SVG 20010904//EN"
 "http://www.w3.org/TR/2001/REC-SVG-20010904/DTD/svg10.dtd">
<svg version="1.0" xmlns="http://www.w3.org/2000/svg"
 width="260.000000pt" height="260.000000pt" viewBox="0 0 260.000000 260.000000"
 preserveAspectRatio="xMidYMid meet">
<metadata>
Created by potrace 1.11, written by Peter Selinger 2001-2013
</metadata>
<g transform="translate(0.000000,260.000000) scale(0.100000,-0.100000)"
fill="#000000" stroke="none">
<path d="M1169 2456 c-2 -2 -27 -6 -56 -10 -46 -5 -99 -17 -208 -45 -16 -4
-66 -24 -110 -43 -344 -149 -577 -411 -672 -754 -25 -90 -27 -115 -27 -269 -1
-126 4 -192 17 -255 35 -166 96 -314 183 -446 50 -77 202 -228 282 -283 167
-113 371 -186 575 -206 l59 -6 -23 33 c-13 18 -35 49 -50 68 -123 161 -471
635 -495 675 -41 69 -61 117 -84 205 -27 104 -22 295 10 395 54 170 160 313
304 411 186 127 440 163 655 93 183 -60 353 -207 441 -383 102 -204 106 -449
11 -653 -36 -77 -67 -121 -284 -413 -97 -129 -193 -259 -214 -288 -21 -29 -43
-58 -48 -65 -6 -7 -21 -27 -34 -45 l-23 -33 62 6 c34 4 71 8 83 11 12 2 36 7
52 9 17 3 73 19 125 35 379 117 674 435 765 825 39 168 42 426 6 565 -65 248
-203 456 -404 609 -157 118 -352 206 -524 237 -13 2 -35 7 -50 10 -32 7 -318
16 -324 10z"/>
<path d="M1183 1638 c-233 -79 -321 -359 -174 -554 146 -194 444 -189 580 10
74 107 84 239 28 359 -75 161 -265 242 -434 185z"/>
</g>
</svg>
